<svg width="389" height="296" viewBox="0 0 389 296" fill="none" xmlns="http://www.w3.org/2000/svg">
<path fill-rule="evenodd" clip-rule="evenodd" d="M114.928 279.393C122.589 279.393 128.799 273.183 128.799 265.523C128.799 257.862 122.589 251.652 114.928 251.652C107.268 251.652 101.057 257.862 101.057 265.523C101.057 273.183 107.268 279.393 114.928 279.393ZM114.928 295.245C131.343 295.245 144.651 281.938 144.651 265.523C144.651 249.107 131.343 235.8 114.928 235.8C98.5126 235.8 85.2053 249.107 85.2053 265.523C85.2053 281.938 98.5126 295.245 114.928 295.245Z" fill="black"/>
<path fill-rule="evenodd" clip-rule="evenodd" d="M309.116 279.393C316.777 279.393 322.987 273.183 322.987 265.523C322.987 257.862 316.777 251.652 309.116 251.652C301.456 251.652 295.246 257.862 295.246 265.523C295.246 273.183 301.456 279.393 309.116 279.393ZM309.116 295.245C325.532 295.245 338.839 281.938 338.839 265.523C338.839 249.107 325.532 235.8 309.116 235.8C292.701 235.8 279.393 249.107 279.393 265.523C279.393 281.938 292.701 295.245 309.116 295.245Z" fill="black"/>
<path fill-rule="evenodd" clip-rule="evenodd" d="M0 7.92606C0 3.54862 3.54862 0 7.92606 0H39.6303C43.1132 0 46.188 2.27367 47.2085 5.60371L60.0649 47.5563H380.451C383.061 47.5563 385.504 48.8413 386.982 50.9922C388.461 53.143 388.786 55.8839 387.851 58.3209L332.369 202.971C331.193 206.036 328.251 208.059 324.968 208.059H103.822L93.1185 233.819H307.135C311.512 233.819 315.061 237.367 315.061 241.745C315.061 246.122 311.512 249.671 307.135 249.671H81.2421C78.5934 249.671 76.1197 248.348 74.6494 246.145C73.179 243.941 72.9064 241.149 73.9227 238.703L90.1181 199.727L33.7694 15.8521H7.92606C3.54862 15.8521 0 12.3035 0 7.92606ZM104.393 192.207H319.519L368.922 63.4085H64.9229L104.393 192.207Z" fill="black"/>
<path fill-rule="evenodd" clip-rule="evenodd" d="M225.893 103.039C225.893 98.6614 222.344 95.1128 217.967 95.1128H99.0758C94.6983 95.1128 91.1497 98.6614 91.1497 103.039C91.1497 107.416 94.6983 110.965 99.0758 110.965H217.967C222.344 110.965 225.893 107.416 225.893 103.039ZM225.893 148.614C225.893 144.236 222.344 140.688 217.967 140.688H144.651C140.273 140.688 136.725 144.236 136.725 148.614C136.725 152.991 140.273 156.54 144.651 156.54H217.967C222.344 156.54 225.893 152.991 225.893 148.614Z" fill="black"/>
</svg>
